solid OpenSCAD_Model
  facet normal -1 0 0
    outer loop
      vertex -10 -4.9 0
      vertex -10 -4.9 12
      vertex -10 4.9 0
    endloop
  endfacet
  facet normal -1 0 0
    outer loop
      vertex -10 4.9 0
      vertex -10 -4.9 12
      vertex -10 4.9 12
    endloop
  endfacet
  facet normal 0 -1 0
    outer loop
      vertex -10 -4.9 12
      vertex -10 -4.9 0
      vertex 10 -4.9 0
    endloop
  endfacet
  facet normal 0 -1 0
    outer loop
      vertex 10 -4.9 12
      vertex -10 -4.9 12
      vertex 10 -4.9 0
    endloop
  endfacet
  facet normal 0 0 -1
    outer loop
      vertex -8.64 3.935 0
      vertex -10 4.9 0
      vertex 10 -4.9 0
    endloop
  endfacet
  facet normal 0 0 -1
    outer loop
      vertex -1.52 3.935 0
      vertex -10 4.9 0
      vertex 10 4.9 0
    endloop
  endfacet
  facet normal 0 0 -1
    outer loop
      vertex -10 -4.9 0
      vertex -10 4.9 0
      vertex -9.14 -3.685 0
    endloop
  endfacet
  facet normal 0 0 -1
    outer loop
      vertex -10 -4.9 0
      vertex -9.14 -3.685 0
      vertex -9.14 -3.935 0
    endloop
  endfacet
  facet normal 0 0 -1
    outer loop
      vertex -10 -4.9 0
      vertex -9.14 -3.935 0
      vertex 10 -4.9 0
    endloop
  endfacet
  facet normal 0 0 -1
    outer loop
      vertex -9.14 -3.935 0
      vertex -8.64 -3.935 0
      vertex 10 -4.9 0
    endloop
  endfacet
  facet normal 0 0 -1
    outer loop
      vertex -9.14 -3.685 0
      vertex -10 4.9 0
      vertex -8.64 -3.685 0
    endloop
  endfacet
  facet normal 0 0 -1
    outer loop
      vertex -8.64 3.685 0
      vertex -8.64 -3.685 0
      vertex -9.14 3.685 0
    endloop
  endfacet
  facet normal 0 0 -1
    outer loop
      vertex -9.14 3.685 0
      vertex -10 4.9 0
      vertex -9.14 3.935 0
    endloop
  endfacet
  facet normal 0 0 -1
    outer loop
      vertex -8.64 -3.685 0
      vertex -10 4.9 0
      vertex -9.14 3.685 0
    endloop
  endfacet
  facet normal 0 0 -1
    outer loop
      vertex -8.64 3.935 0
      vertex 10 -4.9 0
      vertex -8.64 3.685 0
    endloop
  endfacet
  facet normal 0 0 -1
    outer loop
      vertex 4.06 -3.685 0
      vertex -8.64 3.685 0
      vertex 10 -4.9 0
    endloop
  endfacet
  facet normal 0 0 -1
    outer loop
      vertex -9.14 3.935 0
      vertex -10 4.9 0
      vertex -8.64 3.935 0
    endloop
  endfacet
  facet normal 0 0 -1
    outer loop
      vertex -1.02 -3.685 0
      vertex 10 -4.9 0
      vertex -1.02 -3.935 0
    endloop
  endfacet
  facet normal 0 0 -1
    outer loop
      vertex -8.64 -3.685 0
      vertex -8.64 3.685 0
      vertex -1.52 -3.685 0
    endloop
  endfacet
  facet normal 0 0 -1
    outer loop
      vertex -8.64 -3.685 0
      vertex -1.52 -3.685 0
      vertex -1.52 -3.935 0
    endloop
  endfacet
  facet normal 0 0 -1
    outer loop
      vertex -8.64 -3.685 0
      vertex -1.52 -3.935 0
      vertex 10 -4.9 0
    endloop
  endfacet
  facet normal 0 0 -1
    outer loop
      vertex -1.52 -3.935 0
      vertex -1.02 -3.935 0
      vertex 10 -4.9 0
    endloop
  endfacet
  facet normal 0 0 -1
    outer loop
      vertex -1.52 -3.685 0
      vertex -8.64 3.685 0
      vertex -1.02 -3.685 0
    endloop
  endfacet
  facet normal 0 0 -1
    outer loop
      vertex -1.52 3.685 0
      vertex -10 4.9 0
      vertex -1.52 3.935 0
    endloop
  endfacet
  facet normal 0 0 -1
    outer loop
      vertex -1.02 3.935 0
      vertex -1.52 3.935 0
      vertex 10 4.9 0
    endloop
  endfacet
  facet normal 0 0 -1
    outer loop
      vertex 8.64 -3.935 0
      vertex -10 4.9 0
      vertex -1.52 3.685 0
    endloop
  endfacet
  facet normal 0 0 -1
    outer loop
      vertex 4.06 -3.685 0
      vertex 10 -4.9 0
      vertex 4.06 -3.935 0
    endloop
  endfacet
  facet normal 0 0 -1
    outer loop
      vertex 3.56 3.935 0
      vertex -1.02 3.685 0
      vertex 10 4.9 0
    endloop
  endfacet
  facet normal 0 0 -1
    outer loop
      vertex -1.02 3.685 0
      vertex -1.02 3.935 0
      vertex 10 4.9 0
    endloop
  endfacet
  facet normal 0 0 -1
    outer loop
      vertex -1.02 -3.685 0
      vertex -8.64 3.685 0
      vertex 3.56 -3.685 0
    endloop
  endfacet
  facet normal 0 0 -1
    outer loop
      vertex 4.06 3.685 0
      vertex 9.14 -3.685 0
      vertex 3.56 3.685 0
    endloop
  endfacet
  facet normal 0 0 -1
    outer loop
      vertex -1.02 -3.685 0
      vertex 3.56 -3.685 0
      vertex 3.56 -3.935 0
    endloop
  endfacet
  facet normal 0 0 -1
    outer loop
      vertex -1.02 -3.685 0
      vertex 3.56 -3.935 0
      vertex 10 -4.9 0
    endloop
  endfacet
  facet normal 0 0 -1
    outer loop
      vertex 3.56 -3.935 0
      vertex 4.06 -3.935 0
      vertex 10 -4.9 0
    endloop
  endfacet
  facet normal 0 0 -1
    outer loop
      vertex 3.56 -3.685 0
      vertex -8.64 3.685 0
      vertex 4.06 -3.685 0
    endloop
  endfacet
  facet normal 0 0 -1
    outer loop
      vertex 3.56 3.685 0
      vertex -1.02 3.685 0
      vertex 3.56 3.935 0
    endloop
  endfacet
  facet normal 0 0 -1
    outer loop
      vertex 4.06 3.935 0
      vertex 3.56 3.935 0
      vertex 10 4.9 0
    endloop
  endfacet
  facet normal 0 0 -1
    outer loop
      vertex 8.64 -3.685 0
      vertex -1.02 3.685 0
      vertex 3.56 3.685 0
    endloop
  endfacet
  facet normal 0 0 -1
    outer loop
      vertex 8.64 -3.685 0
      vertex 3.56 3.685 0
      vertex 9.14 -3.685 0
    endloop
  endfacet
  facet normal 0 0 -1
    outer loop
      vertex 8.64 3.935 0
      vertex 4.06 3.685 0
      vertex 10 4.9 0
    endloop
  endfacet
  facet normal 0 0 -1
    outer loop
      vertex 4.06 3.685 0
      vertex 4.06 3.935 0
      vertex 10 4.9 0
    endloop
  endfacet
  facet normal 0 0 -1
    outer loop
      vertex 8.64 -3.935 0
      vertex -1.52 3.685 0
      vertex -1.02 3.685 0
    endloop
  endfacet
  facet normal 0 0 -1
    outer loop
      vertex 10 -4.9 0
      vertex -10 4.9 0
      vertex 8.64 -3.935 0
    endloop
  endfacet
  facet normal 0 0 -1
    outer loop
      vertex 9.14 -3.935 0
      vertex 10 -4.9 0
      vertex 8.64 -3.935 0
    endloop
  endfacet
  facet normal 0 0 -1
    outer loop
      vertex 9.14 3.685 0
      vertex 10 -4.9 0
      vertex 8.64 3.685 0
    endloop
  endfacet
  facet normal 0 0 -1
    outer loop
      vertex 8.64 -3.935 0
      vertex -1.02 3.685 0
      vertex 8.64 -3.685 0
    endloop
  endfacet
  facet normal 0 0 -1
    outer loop
      vertex 9.14 -3.685 0
      vertex 10 -4.9 0
      vertex 9.14 -3.935 0
    endloop
  endfacet
  facet normal 0 0 -1
    outer loop
      vertex 10 -4.9 0
      vertex 9.14 -3.685 0
      vertex 4.06 3.685 0
    endloop
  endfacet
  facet normal 0 0 -1
    outer loop
      vertex 8.64 3.685 0
      vertex 4.06 3.685 0
      vertex 8.64 3.935 0
    endloop
  endfacet
  facet normal 0 0 -1
    outer loop
      vertex 9.14 3.935 0
      vertex 8.64 3.935 0
      vertex 10 4.9 0
    endloop
  endfacet
  facet normal 0 0 -1
    outer loop
      vertex 10 -4.9 0
      vertex 4.06 3.685 0
      vertex 8.64 3.685 0
    endloop
  endfacet
  facet normal 0 0 -1
    outer loop
      vertex 10 -4.9 0
      vertex 9.14 3.685 0
      vertex 10 4.9 0
    endloop
  endfacet
  facet normal 0 0 -1
    outer loop
      vertex 9.14 3.685 0
      vertex 9.14 3.935 0
      vertex 10 4.9 0
    endloop
  endfacet
  facet normal 0 0 -1
    outer loop
      vertex -8.64 -3.685 0
      vertex 10 -4.9 0
      vertex -8.64 -3.935 0
    endloop
  endfacet
  facet normal 0 1 0
    outer loop
      vertex -10 4.9 0
      vertex -10 4.9 12
      vertex 10 4.9 0
    endloop
  endfacet
  facet normal 0 1 0
    outer loop
      vertex 10 4.9 0
      vertex -10 4.9 12
      vertex 10 4.9 12
    endloop
  endfacet
  facet normal 0 0 1
    outer loop
      vertex -10 4.9 12
      vertex -10 -4.9 12
      vertex 10 -4.9 12
    endloop
  endfacet
  facet normal 0 0 1
    outer loop
      vertex 10 4.9 12
      vertex -10 4.9 12
      vertex 10 -4.9 12
    endloop
  endfacet
  facet normal 1 0 0
    outer loop
      vertex 10 -4.9 12
      vertex 10 -4.9 0
      vertex 10 4.9 0
    endloop
  endfacet
  facet normal 1 0 0
    outer loop
      vertex 10 4.9 12
      vertex 10 -4.9 12
      vertex 10 4.9 0
    endloop
  endfacet
  facet normal -1 0 0
    outer loop
      vertex -9.14 -3.935 -3.5
      vertex -9.14 -3.935 0
      vertex -9.14 -3.685 -3.5
    endloop
  endfacet
  facet normal -1 0 0
    outer loop
      vertex -9.14 -3.685 -3.5
      vertex -9.14 -3.935 0
      vertex -9.14 -3.685 0
    endloop
  endfacet
  facet normal 0 1 0
    outer loop
      vertex -9.14 -3.685 -3.5
      vertex -9.14 -3.685 0
      vertex -8.64 -3.685 -3.5
    endloop
  endfacet
  facet normal 0 1 0
    outer loop
      vertex -8.64 -3.685 -3.5
      vertex -9.14 -3.685 0
      vertex -8.64 -3.685 0
    endloop
  endfacet
  facet normal 1 0 0
    outer loop
      vertex -8.64 -3.935 0
      vertex -8.64 -3.935 -3.5
      vertex -8.64 -3.685 -3.5
    endloop
  endfacet
  facet normal 1 0 0
    outer loop
      vertex -8.64 -3.685 0
      vertex -8.64 -3.935 0
      vertex -8.64 -3.685 -3.5
    endloop
  endfacet
  facet normal 0 -1 0
    outer loop
      vertex -9.14 -3.935 0
      vertex -9.14 -3.935 -3.5
      vertex -8.64 -3.935 -3.5
    endloop
  endfacet
  facet normal 0 -1 0
    outer loop
      vertex -8.64 -3.935 0
      vertex -9.14 -3.935 0
      vertex -8.64 -3.935 -3.5
    endloop
  endfacet
  facet normal -1 0 0
    outer loop
      vertex -9.14 3.685 -3.5
      vertex -9.14 3.685 0
      vertex -9.14 3.935 -3.5
    endloop
  endfacet
  facet normal -1 0 0
    outer loop
      vertex -9.14 3.935 -3.5
      vertex -9.14 3.685 0
      vertex -9.14 3.935 0
    endloop
  endfacet
  facet normal 0 1 0
    outer loop
      vertex -9.14 3.935 -3.5
      vertex -9.14 3.935 0
      vertex -8.64 3.935 -3.5
    endloop
  endfacet
  facet normal 0 1 0
    outer loop
      vertex -8.64 3.935 -3.5
      vertex -9.14 3.935 0
      vertex -8.64 3.935 0
    endloop
  endfacet
  facet normal 1 0 0
    outer loop
      vertex -8.64 3.685 0
      vertex -8.64 3.685 -3.5
      vertex -8.64 3.935 -3.5
    endloop
  endfacet
  facet normal 1 0 0
    outer loop
      vertex -8.64 3.935 0
      vertex -8.64 3.685 0
      vertex -8.64 3.935 -3.5
    endloop
  endfacet
  facet normal 0 -1 0
    outer loop
      vertex -9.14 3.685 0
      vertex -9.14 3.685 -3.5
      vertex -8.64 3.685 -3.5
    endloop
  endfacet
  facet normal 0 -1 0
    outer loop
      vertex -8.64 3.685 0
      vertex -9.14 3.685 0
      vertex -8.64 3.685 -3.5
    endloop
  endfacet
  facet normal -1 0 0
    outer loop
      vertex -1.52 -3.935 -3.5
      vertex -1.52 -3.935 0
      vertex -1.52 -3.685 -3.5
    endloop
  endfacet
  facet normal -1 0 0
    outer loop
      vertex -1.52 -3.685 -3.5
      vertex -1.52 -3.935 0
      vertex -1.52 -3.685 0
    endloop
  endfacet
  facet normal 0 1 0
    outer loop
      vertex -1.52 -3.685 -3.5
      vertex -1.52 -3.685 0
      vertex -1.02 -3.685 -3.5
    endloop
  endfacet
  facet normal 0 1 0
    outer loop
      vertex -1.02 -3.685 -3.5
      vertex -1.52 -3.685 0
      vertex -1.02 -3.685 0
    endloop
  endfacet
  facet normal 1 0 0
    outer loop
      vertex -1.02 -3.935 0
      vertex -1.02 -3.935 -3.5
      vertex -1.02 -3.685 -3.5
    endloop
  endfacet
  facet normal 1 0 0
    outer loop
      vertex -1.02 -3.685 0
      vertex -1.02 -3.935 0
      vertex -1.02 -3.685 -3.5
    endloop
  endfacet
  facet normal 0 -1 0
    outer loop
      vertex -1.52 -3.935 0
      vertex -1.52 -3.935 -3.5
      vertex -1.02 -3.935 -3.5
    endloop
  endfacet
  facet normal 0 -1 0
    outer loop
      vertex -1.02 -3.935 0
      vertex -1.52 -3.935 0
      vertex -1.02 -3.935 -3.5
    endloop
  endfacet
  facet normal -1 0 0
    outer loop
      vertex -1.52 3.685 -3.5
      vertex -1.52 3.685 0
      vertex -1.52 3.935 -3.5
    endloop
  endfacet
  facet normal -1 0 0
    outer loop
      vertex -1.52 3.935 -3.5
      vertex -1.52 3.685 0
      vertex -1.52 3.935 0
    endloop
  endfacet
  facet normal 0 1 0
    outer loop
      vertex -1.52 3.935 -3.5
      vertex -1.52 3.935 0
      vertex -1.02 3.935 -3.5
    endloop
  endfacet
  facet normal 0 1 0
    outer loop
      vertex -1.02 3.935 -3.5
      vertex -1.52 3.935 0
      vertex -1.02 3.935 0
    endloop
  endfacet
  facet normal 1 0 0
    outer loop
      vertex -1.02 3.685 0
      vertex -1.02 3.685 -3.5
      vertex -1.02 3.935 -3.5
    endloop
  endfacet
  facet normal 1 0 0
    outer loop
      vertex -1.02 3.935 0
      vertex -1.02 3.685 0
      vertex -1.02 3.935 -3.5
    endloop
  endfacet
  facet normal 0 -1 0
    outer loop
      vertex -1.52 3.685 0
      vertex -1.52 3.685 -3.5
      vertex -1.02 3.685 -3.5
    endloop
  endfacet
  facet normal 0 -1 0
    outer loop
      vertex -1.02 3.685 0
      vertex -1.52 3.685 0
      vertex -1.02 3.685 -3.5
    endloop
  endfacet
  facet normal -1 0 0
    outer loop
      vertex 3.56 -3.935 -3.5
      vertex 3.56 -3.935 0
      vertex 3.56 -3.685 -3.5
    endloop
  endfacet
  facet normal -1 0 0
    outer loop
      vertex 3.56 -3.685 -3.5
      vertex 3.56 -3.935 0
      vertex 3.56 -3.685 0
    endloop
  endfacet
  facet normal 0 1 0
    outer loop
      vertex 3.56 -3.685 -3.5
      vertex 3.56 -3.685 0
      vertex 4.06 -3.685 -3.5
    endloop
  endfacet
  facet normal 0 1 0
    outer loop
      vertex 4.06 -3.685 -3.5
      vertex 3.56 -3.685 0
      vertex 4.06 -3.685 0
    endloop
  endfacet
  facet normal 1 0 0
    outer loop
      vertex 4.06 -3.935 0
      vertex 4.06 -3.935 -3.5
      vertex 4.06 -3.685 -3.5
    endloop
  endfacet
  facet normal 1 0 0
    outer loop
      vertex 4.06 -3.685 0
      vertex 4.06 -3.935 0
      vertex 4.06 -3.685 -3.5
    endloop
  endfacet
  facet normal 0 -1 0
    outer loop
      vertex 3.56 -3.935 0
      vertex 3.56 -3.935 -3.5
      vertex 4.06 -3.935 -3.5
    endloop
  endfacet
  facet normal 0 -1 0
    outer loop
      vertex 4.06 -3.935 0
      vertex 3.56 -3.935 0
      vertex 4.06 -3.935 -3.5
    endloop
  endfacet
  facet normal -1 0 0
    outer loop
      vertex 3.56 3.685 -3.5
      vertex 3.56 3.685 0
      vertex 3.56 3.935 -3.5
    endloop
  endfacet
  facet normal -1 0 0
    outer loop
      vertex 3.56 3.935 -3.5
      vertex 3.56 3.685 0
      vertex 3.56 3.935 0
    endloop
  endfacet
  facet normal 0 1 0
    outer loop
      vertex 3.56 3.935 -3.5
      vertex 3.56 3.935 0
      vertex 4.06 3.935 -3.5
    endloop
  endfacet
  facet normal 0 1 0
    outer loop
      vertex 4.06 3.935 -3.5
      vertex 3.56 3.935 0
      vertex 4.06 3.935 0
    endloop
  endfacet
  facet normal 1 0 0
    outer loop
      vertex 4.06 3.685 0
      vertex 4.06 3.685 -3.5
      vertex 4.06 3.935 -3.5
    endloop
  endfacet
  facet normal 1 0 0
    outer loop
      vertex 4.06 3.935 0
      vertex 4.06 3.685 0
      vertex 4.06 3.935 -3.5
    endloop
  endfacet
  facet normal 0 -1 0
    outer loop
      vertex 3.56 3.685 0
      vertex 3.56 3.685 -3.5
      vertex 4.06 3.685 -3.5
    endloop
  endfacet
  facet normal 0 -1 0
    outer loop
      vertex 4.06 3.685 0
      vertex 3.56 3.685 0
      vertex 4.06 3.685 -3.5
    endloop
  endfacet
  facet normal -1 0 0
    outer loop
      vertex 8.64 -3.935 -3.5
      vertex 8.64 -3.935 0
      vertex 8.64 -3.685 -3.5
    endloop
  endfacet
  facet normal -1 0 0
    outer loop
      vertex 8.64 -3.685 -3.5
      vertex 8.64 -3.935 0
      vertex 8.64 -3.685 0
    endloop
  endfacet
  facet normal 0 1 0
    outer loop
      vertex 8.64 -3.685 -3.5
      vertex 8.64 -3.685 0
      vertex 9.14 -3.685 -3.5
    endloop
  endfacet
  facet normal 0 1 0
    outer loop
      vertex 9.14 -3.685 -3.5
      vertex 8.64 -3.685 0
      vertex 9.14 -3.685 0
    endloop
  endfacet
  facet normal 1 0 0
    outer loop
      vertex 9.14 -3.935 0
      vertex 9.14 -3.935 -3.5
      vertex 9.14 -3.685 -3.5
    endloop
  endfacet
  facet normal 1 0 0
    outer loop
      vertex 9.14 -3.685 0
      vertex 9.14 -3.935 0
      vertex 9.14 -3.685 -3.5
    endloop
  endfacet
  facet normal 0 -1 0
    outer loop
      vertex 8.64 -3.935 0
      vertex 8.64 -3.935 -3.5
      vertex 9.14 -3.935 -3.5
    endloop
  endfacet
  facet normal 0 -1 0
    outer loop
      vertex 9.14 -3.935 0
      vertex 8.64 -3.935 0
      vertex 9.14 -3.935 -3.5
    endloop
  endfacet
  facet normal -1 0 0
    outer loop
      vertex 8.64 3.685 -3.5
      vertex 8.64 3.685 0
      vertex 8.64 3.935 -3.5
    endloop
  endfacet
  facet normal -1 0 0
    outer loop
      vertex 8.64 3.935 -3.5
      vertex 8.64 3.685 0
      vertex 8.64 3.935 0
    endloop
  endfacet
  facet normal 0 1 0
    outer loop
      vertex 8.64 3.935 -3.5
      vertex 8.64 3.935 0
      vertex 9.14 3.935 -3.5
    endloop
  endfacet
  facet normal 0 1 0
    outer loop
      vertex 9.14 3.935 -3.5
      vertex 8.64 3.935 0
      vertex 9.14 3.935 0
    endloop
  endfacet
  facet normal 1 0 0
    outer loop
      vertex 9.14 3.685 0
      vertex 9.14 3.685 -3.5
      vertex 9.14 3.935 -3.5
    endloop
  endfacet
  facet normal 1 0 0
    outer loop
      vertex 9.14 3.935 0
      vertex 9.14 3.685 0
      vertex 9.14 3.935 -3.5
    endloop
  endfacet
  facet normal 0 -1 0
    outer loop
      vertex 8.64 3.685 0
      vertex 8.64 3.685 -3.5
      vertex 9.14 3.685 -3.5
    endloop
  endfacet
  facet normal 0 -1 0
    outer loop
      vertex 9.14 3.685 0
      vertex 8.64 3.685 0
      vertex 9.14 3.685 -3.5
    endloop
  endfacet
  facet normal 0 0 -1
    outer loop
      vertex -9.14 -3.935 -3.5
      vertex -9.14 -3.685 -3.5
      vertex -8.64 -3.935 -3.5
    endloop
  endfacet
  facet normal 0 0 -1
    outer loop
      vertex -8.64 -3.935 -3.5
      vertex -9.14 -3.685 -3.5
      vertex -8.64 -3.685 -3.5
    endloop
  endfacet
  facet normal 0 0 -1
    outer loop
      vertex -9.14 3.685 -3.5
      vertex -9.14 3.935 -3.5
      vertex -8.64 3.685 -3.5
    endloop
  endfacet
  facet normal 0 0 -1
    outer loop
      vertex -8.64 3.685 -3.5
      vertex -9.14 3.935 -3.5
      vertex -8.64 3.935 -3.5
    endloop
  endfacet
  facet normal 0 0 -1
    outer loop
      vertex -1.52 -3.935 -3.5
      vertex -1.52 -3.685 -3.5
      vertex -1.02 -3.935 -3.5
    endloop
  endfacet
  facet normal 0 0 -1
    outer loop
      vertex -1.02 -3.935 -3.5
      vertex -1.52 -3.685 -3.5
      vertex -1.02 -3.685 -3.5
    endloop
  endfacet
  facet normal 0 0 -1
    outer loop
      vertex -1.52 3.685 -3.5
      vertex -1.52 3.935 -3.5
      vertex -1.02 3.685 -3.5
    endloop
  endfacet
  facet normal 0 0 -1
    outer loop
      vertex -1.02 3.685 -3.5
      vertex -1.52 3.935 -3.5
      vertex -1.02 3.935 -3.5
    endloop
  endfacet
  facet normal 0 0 -1
    outer loop
      vertex 3.56 -3.935 -3.5
      vertex 3.56 -3.685 -3.5
      vertex 4.06 -3.935 -3.5
    endloop
  endfacet
  facet normal 0 0 -1
    outer loop
      vertex 4.06 -3.935 -3.5
      vertex 3.56 -3.685 -3.5
      vertex 4.06 -3.685 -3.5
    endloop
  endfacet
  facet normal 0 0 -1
    outer loop
      vertex 3.56 3.685 -3.5
      vertex 3.56 3.935 -3.5
      vertex 4.06 3.685 -3.5
    endloop
  endfacet
  facet normal 0 0 -1
    outer loop
      vertex 4.06 3.685 -3.5
      vertex 3.56 3.935 -3.5
      vertex 4.06 3.935 -3.5
    endloop
  endfacet
  facet normal 0 0 -1
    outer loop
      vertex 8.64 -3.935 -3.5
      vertex 8.64 -3.685 -3.5
      vertex 9.14 -3.935 -3.5
    endloop
  endfacet
  facet normal 0 0 -1
    outer loop
      vertex 9.14 -3.935 -3.5
      vertex 8.64 -3.685 -3.5
      vertex 9.14 -3.685 -3.5
    endloop
  endfacet
  facet normal 0 0 -1
    outer loop
      vertex 8.64 3.685 -3.5
      vertex 8.64 3.935 -3.5
      vertex 9.14 3.685 -3.5
    endloop
  endfacet
  facet normal 0 0 -1
    outer loop
      vertex 9.14 3.685 -3.5
      vertex 8.64 3.935 -3.5
      vertex 9.14 3.935 -3.5
    endloop
  endfacet
endsolid OpenSCAD_Model
